# Blender v2.82 (sub 7) OBJ File: 'axis.blend'
# www.blender.org
o Axis
v 0.000000 0.050552 -0.650000
v 0.000000 0.050552 0.650000
v 0.020449 0.046182 -0.650000
v 0.020449 0.046182 0.650000
v 0.037362 0.033826 -0.650000
v 0.037362 0.033826 0.650000
v 0.047815 0.015622 -0.650000
v 0.047815 0.015622 0.650000
v 0.050000 -0.005284 -0.650000
v 0.050000 -0.005284 0.650000
v 0.043540 -0.025276 -0.650000
v 0.043540 -0.025276 0.650000
v 0.029551 -0.040898 -0.650000
v 0.029551 -0.040898 0.650000
v 0.010453 -0.049448 -0.650000
v 0.010453 -0.049448 0.650000
v -0.010453 -0.049448 -0.650000
v -0.010453 -0.049448 0.650000
v -0.029551 -0.040898 -0.650000
v -0.029551 -0.040898 0.650000
v -0.043540 -0.025276 -0.650000
v -0.043540 -0.025276 0.650000
v -0.050000 -0.005284 -0.650000
v -0.050000 -0.005284 0.650000
v -0.047815 0.015622 -0.650000
v -0.047815 0.015622 0.650000
v -0.037362 0.033826 -0.650000
v -0.037362 0.033826 0.650000
v -0.020449 0.046182 -0.650000
v -0.020449 0.046182 0.650000
vt 0.262563 0.498627
vt 0.312814 1.000000
vt 0.262563 1.000000
vt 1.000000 1.000000
vt 0.931394 0.498627
vt 1.000000 0.498627
vt 0.931394 1.000000
vt 0.856295 0.498627
vt 0.856295 1.000000
vt 0.787688 0.498627
vt 0.312814 0.498627
vt 0.363065 1.000000
vt 0.312814 1.000000
vt 0.363065 0.498627
vt 0.431671 1.000000
vt 0.431671 0.498627
vt 0.506770 1.000000
vt 0.506770 0.498627
vt 0.575377 1.000000
vt 0.575377 0.498627
vt 0.643983 1.000000
vt 0.643983 0.498627
vt 0.719082 1.000000
vt 0.719082 0.498627
vt 0.787688 1.000000
vt 0.000000 0.498627
vt 0.050251 1.000000
vt 0.000000 1.000000
vt 0.050251 0.498627
vt 0.118858 1.000000
vt 0.015614 0.351277
vt 0.059756 0.063017
vt 0.326714 0.101963
vt 0.118857 0.498627
vt 0.193957 1.000000
vt 0.193956 0.498627
vt 0.372874 0.147350
vt 0.482053 0.010896
vt 0.628164 0.032212
vt 0.312814 0.498627
vt 0.787688 1.000000
vt 0.787688 0.498627
vt 0.000000 0.249313
vt 0.015614 0.147350
vt 0.124794 0.010896
vt 0.199481 0.000000
vt 0.270905 0.032212
vt 0.357260 0.197193
vt 0.357260 0.301434
vt 0.326714 0.396663
vt 0.270905 0.466414
vt 0.199481 0.498627
vt 0.124794 0.487730
vt 0.059756 0.435610
vt 0.683974 0.101963
vt 0.714519 0.197193
vt 0.714519 0.301434
vt 0.683974 0.396663
vt 0.628164 0.466414
vt 0.556741 0.498627
vt 0.482053 0.487730
vt 0.417016 0.435610
vt 0.372873 0.351277
vt 0.357260 0.249313
vt 0.417016 0.063017
vt 0.556741 0.000000
vn 0.0000 1.0000 0.0000
vn 0.4084 0.9128 0.0000
vn 0.7448 0.6673 0.0000
vn 0.9515 0.3076 0.0000
vn 0.9946 -0.1040 -0.0000
vn 0.8671 -0.4981 -0.0000
vn 0.5897 -0.8076 -0.0000
vn 0.2089 -0.9779 -0.0000
vn -0.2089 -0.9779 -0.0000
vn -0.5897 -0.8076 -0.0000
vn -0.8671 -0.4981 -0.0000
vn -0.9946 -0.1040 -0.0000
vn -0.9515 0.3076 0.0000
vn -0.7448 0.6673 0.0000
vn -0.0000 0.0000 1.0000
vn -0.4084 0.9128 0.0000
vn -0.0000 0.0000 -1.0000
s 1
f 2/1/1 3/2/2 1/3/1
f 4/4/2 5/5/3 3/6/2
f 6/7/3 7/8/4 5/5/3
f 8/9/4 9/10/5 7/8/4
f 10/11/5 11/12/6 9/13/5
f 12/14/6 13/15/7 11/12/6
f 14/16/7 15/17/8 13/15/7
f 16/18/8 17/19/9 15/17/8
f 18/20/9 19/21/10 17/19/9
f 20/22/10 21/23/11 19/21/10
f 22/24/11 23/25/12 21/23/11
f 24/26/12 25/27/13 23/28/12
f 26/29/13 27/30/14 25/27/13
f 8/31/15 2/32/15 24/33/15
f 28/34/14 29/35/16 27/30/14
f 30/36/16 1/3/1 29/35/16
f 19/37/17 23/38/17 27/39/17
f 2/1/1 4/40/2 3/2/2
f 4/4/2 6/7/3 5/5/3
f 6/7/3 8/9/4 7/8/4
f 8/9/4 10/41/5 9/10/5
f 10/11/5 12/14/6 11/12/6
f 12/14/6 14/16/7 13/15/7
f 14/16/7 16/18/8 15/17/8
f 16/18/8 18/20/9 17/19/9
f 18/20/9 20/22/10 19/21/10
f 20/22/10 22/24/11 21/23/11
f 22/24/11 24/42/12 23/25/12
f 24/26/12 26/29/13 25/27/13
f 26/29/13 28/34/14 27/30/14
f 6/43/15 4/44/15 2/32/15
f 2/32/15 30/45/15 28/46/15
f 28/46/15 26/47/15 24/33/15
f 24/33/15 22/48/15 20/49/15
f 20/49/15 18/50/15 24/33/15
f 18/50/15 16/51/15 24/33/15
f 16/51/15 14/52/15 12/53/15
f 12/53/15 10/54/15 8/31/15
f 8/31/15 6/43/15 2/32/15
f 2/32/15 28/46/15 24/33/15
f 16/51/15 12/53/15 24/33/15
f 12/53/15 8/31/15 24/33/15
f 28/34/14 30/36/16 29/35/16
f 30/36/16 2/1/1 1/3/1
f 29/55/17 1/56/17 3/57/17
f 3/57/17 5/58/17 7/59/17
f 7/59/17 9/60/17 11/61/17
f 11/61/17 13/62/17 15/63/17
f 15/63/17 17/64/17 19/37/17
f 19/37/17 21/65/17 23/38/17
f 23/38/17 25/66/17 27/39/17
f 27/39/17 29/55/17 11/61/17
f 29/55/17 3/57/17 11/61/17
f 3/57/17 7/59/17 11/61/17
f 11/61/17 15/63/17 27/39/17
f 15/63/17 19/37/17 27/39/17
